<svg width="10" height="10" viewBox="0 0 10 10" fill="none" xmlns="http://www.w3.org/2000/svg">
<path d="M9.3 1.075H8.675V0.4625C8.675 0.2125 8.4625 0 8.2125 0C7.9625 0 7.75 0.2125 7.75 0.4625V1.075H6.5375V0.4625C6.5375 0.2125 6.325 0 6.075 0C5.825 0 5.6125 0.2125 5.6125 0.4625V1.075H4.4V0.4625C4.4 0.2125 4.1875 0 3.9375 0C3.6875 0 3.475 0.2125 3.475 0.4625V1.075H2.25V0.4625C2.25 0.2125 2.0375 0 1.7875 0C1.5375 0 1.325 0.2125 1.325 0.4625V1.075H0.7C0.3125 1.075 0 1.3875 0 1.775V8.55C0 8.9375 0.3125 9.25 0.7 9.25H9.3C9.6875 9.25 10 8.9375 10 8.55V1.775C10 1.3875 9.6875 1.075 9.3 1.075ZM8.2125 0.25C8.325 0.25 8.425 0.35 8.425 0.4625V1.9375C8.425 2.05 8.325 2.15 8.2125 2.15C8.1 2.15 8 2.0625 8 1.9375V1.2V0.4625C8 0.35 8.1 0.25 8.2125 0.25ZM5.8625 0.4625C5.8625 0.35 5.9625 0.25 6.075 0.25C6.1875 0.25 6.2875 0.35 6.2875 0.4625V1.9375C6.2875 2.05 6.1875 2.15 6.075 2.15C5.9625 2.15 5.8625 2.05 5.8625 1.9375V0.4625ZM3.7125 0.4625C3.7125 0.35 3.8125 0.25 3.925 0.25C4.0375 0.25 4.1375 0.35 4.1375 0.4625V1.2V1.9375C4.1375 2.05 4.0375 2.15 3.925 2.15C3.8125 2.15 3.7125 2.05 3.7125 1.9375V0.4625ZM1.575 0.4625C1.575 0.35 1.675 0.25 1.7875 0.25C1.9 0.25 2 0.35 2 0.4625V1.2V1.9375C2 2.05 1.9 2.15 1.7875 2.15C1.675 2.15 1.575 2.05 1.575 1.9375V0.4625ZM0.7 1.325H1.325V1.9375C1.325 2.1875 1.5375 2.4 1.7875 2.4C2.0375 2.4 2.25 2.1875 2.25 1.9375V1.325H3.4625V1.9375C3.4625 2.1875 3.675 2.4 3.925 2.4C4.175 2.4 4.3875 2.1875 4.3875 1.9375V1.325H5.6V1.9375C5.6 2.1875 5.8125 2.4 6.0625 2.4C6.3125 2.4 6.525 2.1875 6.525 1.9375V1.325H7.75V1.9375C7.75 2.1875 7.9625 2.4 8.2125 2.4C8.4625 2.4 8.675 2.1875 8.675 1.9375V1.325H9.3C9.55 1.325 9.75 1.525 9.75 1.775V2.875H0.25V1.7875C0.25 1.525 0.45 1.325 0.7 1.325ZM9.3 9H0.7C0.45 9 0.25 8.8 0.25 8.55V3.125H9.75V8.55C9.75 8.8 9.55 9 9.3 9Z" fill="#EF3948"/>
<path d="M2.27578 3.89844H1.30078C1.22578 3.89844 1.17578 3.94844 1.17578 4.02344V4.99844C1.17578 5.07344 1.22578 5.12344 1.30078 5.12344H2.27578C2.35078 5.12344 2.40078 5.07344 2.40078 4.99844V4.02344C2.40078 3.94844 2.35078 3.89844 2.27578 3.89844ZM2.15078 4.87344H1.42578V4.14844H2.15078V4.87344Z" fill="#EF3948"/>
<path d="M4.4125 3.89844H3.4375C3.3625 3.89844 3.3125 3.94844 3.3125 4.02344V4.99844C3.3125 5.07344 3.3625 5.12344 3.4375 5.12344H4.4125C4.4875 5.12344 4.5375 5.07344 4.5375 4.99844V4.02344C4.5375 3.94844 4.4875 3.89844 4.4125 3.89844ZM4.2875 4.87344H3.5625V4.14844H4.2875V4.87344Z" fill="#EF3948"/>
<path d="M6.56094 3.89844H5.58594C5.51094 3.89844 5.46094 3.94844 5.46094 4.02344V4.99844C5.46094 5.07344 5.51094 5.12344 5.58594 5.12344H6.56094C6.63594 5.12344 6.68594 5.07344 6.68594 4.99844V4.02344C6.68594 3.94844 6.62344 3.89844 6.56094 3.89844ZM6.43594 4.87344H5.71094V4.14844H6.43594V4.87344Z" fill="#EF3948"/>
<path d="M8.70156 3.89844H7.72656C7.65156 3.89844 7.60156 3.94844 7.60156 4.02344V4.99844C7.60156 5.07344 7.65156 5.12344 7.72656 5.12344H8.70156C8.77656 5.12344 8.82656 5.07344 8.82656 4.99844V4.02344C8.82656 3.94844 8.77656 3.89844 8.70156 3.89844ZM8.57656 4.87344H7.85156V4.14844H8.57656V4.87344Z" fill="#EF3948"/>
<path d="M2.27578 5.44922H1.30078C1.22578 5.44922 1.17578 5.49922 1.17578 5.57422V6.54922C1.17578 6.62422 1.22578 6.67422 1.30078 6.67422H2.27578C2.35078 6.67422 2.40078 6.62422 2.40078 6.54922V5.57422C2.40078 5.49922 2.35078 5.44922 2.27578 5.44922ZM2.15078 6.42422H1.42578V5.69922H2.15078V6.42422Z" fill="#EF3948"/>
<path d="M4.4125 5.44922H3.4375C3.3625 5.44922 3.3125 5.49922 3.3125 5.57422V6.54922C3.3125 6.62422 3.3625 6.67422 3.4375 6.67422H4.4125C4.4875 6.67422 4.5375 6.62422 4.5375 6.54922V5.57422C4.5375 5.49922 4.4875 5.44922 4.4125 5.44922ZM4.2875 6.42422H3.5625V5.69922H4.2875V6.42422Z" fill="#EF3948"/>
<path d="M6.56094 5.44922H5.58594C5.51094 5.44922 5.46094 5.49922 5.46094 5.57422V6.54922C5.46094 6.62422 5.51094 6.67422 5.58594 6.67422H6.56094C6.63594 6.67422 6.68594 6.62422 6.68594 6.54922V5.57422C6.68594 5.49922 6.62344 5.44922 6.56094 5.44922ZM6.43594 6.42422H5.71094V5.69922H6.43594V6.42422Z" fill="#EF3948"/>
<path d="M8.70156 5.44922H7.72656C7.65156 5.44922 7.60156 5.49922 7.60156 5.57422V6.54922C7.60156 6.62422 7.65156 6.67422 7.72656 6.67422H8.70156C8.77656 6.67422 8.82656 6.62422 8.82656 6.54922V5.57422C8.82656 5.49922 8.77656 5.44922 8.70156 5.44922ZM8.57656 6.42422H7.85156V5.69922H8.57656V6.42422Z" fill="#EF3948"/>
<path d="M2.27578 7H1.30078C1.22578 7 1.17578 7.05 1.17578 7.125V8.1C1.17578 8.175 1.22578 8.225 1.30078 8.225H2.27578C2.35078 8.225 2.40078 8.175 2.40078 8.1V7.125C2.40078 7.05 2.35078 7 2.27578 7ZM2.15078 7.975H1.42578V7.25H2.15078V7.975Z" fill="#EF3948"/>
<path d="M4.4125 7H3.4375C3.3625 7 3.3125 7.05 3.3125 7.125V8.1C3.3125 8.175 3.3625 8.225 3.4375 8.225H4.4125C4.4875 8.225 4.5375 8.175 4.5375 8.1V7.125C4.5375 7.05 4.4875 7 4.4125 7ZM4.2875 7.975H3.5625V7.25H4.2875V7.975Z" fill="#EF3948"/>
<path d="M6.56094 7H5.58594C5.51094 7 5.46094 7.05 5.46094 7.125V8.1C5.46094 8.175 5.51094 8.225 5.58594 8.225H6.56094C6.63594 8.225 6.68594 8.175 6.68594 8.1V7.125C6.68594 7.05 6.62344 7 6.56094 7ZM6.43594 7.975H5.71094V7.25H6.43594V7.975Z" fill="#EF3948"/>
<path d="M8.70156 7H7.72656C7.65156 7 7.60156 7.05 7.60156 7.125V8.1C7.60156 8.175 7.65156 8.225 7.72656 8.225H8.70156C8.77656 8.225 8.82656 8.175 8.82656 8.1V7.125C8.82656 7.05 8.77656 7 8.70156 7ZM8.57656 7.975H7.85156V7.25H8.57656V7.975Z" fill="#EF3948"/>
</svg>
