<svg width="43" height="43" viewBox="0 0 43 43" fill="none" xmlns="http://www.w3.org/2000/svg">
<rect width="42.0209" height="42.0209" rx="21.0104" fill="#DF0A0A"/>
<path d="M19.3391 20.7461C19.9287 21.7819 20.7865 22.6398 21.8224 23.2294L22.3779 22.4515C22.4672 22.3264 22.5992 22.2384 22.7491 22.2041C22.8989 22.1698 23.0561 22.1916 23.191 22.2655C24.0796 22.7511 25.0611 23.0432 26.0707 23.1226C26.2284 23.135 26.3754 23.2065 26.4827 23.3226C26.59 23.4387 26.6495 23.591 26.6495 23.749V26.5528C26.6495 26.7084 26.5919 26.8584 26.4876 26.9739C26.3834 27.0894 26.24 27.1622 26.0852 27.178C25.7522 27.2126 25.4166 27.2296 25.0785 27.2296C19.6997 27.2296 15.3389 22.8687 15.3389 17.4899C15.3389 17.1518 15.3558 16.8163 15.3904 16.4832C15.4063 16.3285 15.479 16.1851 15.5945 16.0808C15.71 15.9766 15.86 15.9189 16.0156 15.9189H18.8194C18.9775 15.9189 19.1297 15.9785 19.2459 16.0857C19.362 16.193 19.4334 16.3401 19.4459 16.4977C19.5252 17.5073 19.8173 18.4888 20.303 19.3775C20.3768 19.5123 20.3986 19.6695 20.3643 19.8194C20.3301 19.9692 20.2421 20.1013 20.117 20.1906L19.3391 20.7461ZM17.7543 20.3332L18.9482 19.4805C18.6094 18.7492 18.3772 17.973 18.2589 17.1757H16.6019C16.5981 17.28 16.5962 17.3849 16.5962 17.4899C16.5956 22.175 20.3935 25.9729 25.0785 25.9729C25.1835 25.9729 25.2884 25.971 25.3927 25.9666V24.3095C24.5954 24.1912 23.8192 23.9591 23.0879 23.6203L22.2352 24.8141C21.8919 24.6807 21.5585 24.5232 21.2374 24.3429L21.2009 24.3221C19.9684 23.6207 18.9478 22.6 18.2463 21.3675L18.2256 21.3311C18.0452 21.01 17.8877 20.6765 17.7543 20.3332Z" fill="white"/>
</svg>
