<svg width="10" height="10" viewBox="0 0 10 10" fill="none" xmlns="http://www.w3.org/2000/svg">
<path d="M9.29146 0H0.708638C0.317808 0 0 0.317808 0 0.708638V6.66756C0 7.05839 0.317808 7.3762 0.708638 7.3762H3.91218C3.95957 7.4438 4.01397 7.50673 4.07302 7.56423V9.17577C4.07302 9.22239 4.09866 9.26513 4.13906 9.28766C4.17947 9.31019 4.22997 9.30864 4.26882 9.28377L5 8.82688L5.7304 9.28377C5.75138 9.29698 5.77469 9.3032 5.79878 9.3032C5.82053 9.3032 5.84151 9.29776 5.86094 9.28766C5.90212 9.26513 5.92698 9.22239 5.92698 9.17577V7.56423C5.98604 7.50673 6.03965 7.4438 6.08782 7.3762H9.29136C9.68219 7.3762 10 7.05839 10 6.66756V0.708638C10 0.317808 9.68228 0 9.29146 0ZM1.97195 6.36371C1.91368 5.89594 1.54225 5.52532 1.07528 5.46704V2.06459C1.54305 2.00631 1.91367 1.63489 1.97195 1.16791H8.02794C8.08622 1.63568 8.45764 2.0063 8.92461 2.06459V5.46704C8.45762 5.52532 8.08622 5.89674 8.02794 6.36371H6.30997C6.19497 5.74521 5.65183 5.27511 4.99993 5.27511C4.34802 5.27511 3.80488 5.74521 3.68989 6.36371H1.97195ZM5.6698 8.94425L5.06762 8.5674C5.02644 8.54176 4.9736 8.54176 4.93164 8.5674L4.32946 8.94425V7.75853C4.52605 7.87353 4.75526 7.93958 4.99925 7.93958C5.24324 7.93958 5.47245 7.87275 5.66904 7.75853L5.6698 8.94425ZM5.00001 7.68394C4.40636 7.68394 3.92383 7.20063 3.92383 6.60776C3.92383 6.01412 4.40714 5.53159 5.00001 5.53159C5.59365 5.53159 6.07618 6.0149 6.07618 6.60776C6.07618 7.20141 5.59365 7.68394 5.00001 7.68394ZM9.74375 6.6676C9.74375 6.91702 9.54096 7.12059 9.29076 7.12059H6.22925C6.29374 6.96596 6.33026 6.79735 6.33181 6.6202H8.14769C8.2184 6.6202 8.2759 6.5627 8.2759 6.49199C8.2759 6.06386 8.62478 5.71576 9.05213 5.71576C9.12284 5.71576 9.18034 5.65826 9.18034 5.58755V1.94501C9.18034 1.8743 9.12284 1.8168 9.05213 1.8168C8.624 1.8168 8.2759 1.46792 8.2759 1.04057C8.2759 0.969861 8.2184 0.912363 8.14769 0.912363H1.85241C1.7817 0.912363 1.7242 0.969861 1.7242 1.04057C1.7242 1.4687 1.37532 1.8168 0.947971 1.8168C0.877262 1.8168 0.819764 1.8743 0.819764 1.94501V5.58755C0.819764 5.65826 0.877262 5.71576 0.947971 5.71576C1.3761 5.71576 1.7242 6.06464 1.7242 6.49199C1.7242 6.5627 1.7817 6.6202 1.85241 6.6202H3.66829C3.66984 6.79736 3.70636 6.96597 3.77085 7.12059H0.709342C0.459921 7.12059 0.256351 6.91779 0.256351 6.6676V0.708677C0.256351 0.459256 0.459145 0.255686 0.709342 0.255686H9.29156C9.54098 0.255686 9.74455 0.458481 9.74455 0.708677V6.6676H9.74375Z" fill="#EF3948"/>
<path d="M3.63211 2.22516H6.37178C6.44249 2.22516 6.49999 2.16767 6.49999 2.09696C6.49999 2.02625 6.44249 1.96875 6.37178 1.96875H3.63211C3.5614 1.96875 3.50391 2.02625 3.50391 2.09696C3.50391 2.16844 3.5614 2.22516 3.63211 2.22516Z" fill="#EF3948"/>
<path d="M6.49999 4.2493C6.49999 4.17859 6.44249 4.12109 6.37178 4.12109H3.63211C3.5614 4.12109 3.50391 4.17859 3.50391 4.2493C3.50391 4.32001 3.5614 4.37751 3.63211 4.37751H6.37178C6.44249 4.37751 6.49999 4.32079 6.49999 4.2493Z" fill="#EF3948"/>
<path d="M7.37326 3.42118C7.37326 3.35047 7.31576 3.29297 7.24505 3.29297L2.75711 3.29375C2.68641 3.29375 2.62891 3.35124 2.62891 3.42195C2.62891 3.49266 2.68641 3.55016 2.75711 3.55016H7.24505C7.31576 3.54938 7.37326 3.49266 7.37326 3.42118Z" fill="#EF3948"/>
<path d="M4.99875 5.94922C4.63589 5.94922 4.33984 6.24449 4.33984 6.60813C4.33984 6.97099 4.63511 7.26704 4.99875 7.26704C5.36161 7.26704 5.65766 6.97177 5.65766 6.60813C5.65766 6.24527 5.36161 5.94922 4.99875 5.94922ZM4.99875 7.01061C4.77652 7.01061 4.59627 6.83035 4.59627 6.60813C4.59627 6.3859 4.77653 6.20564 4.99875 6.20564C5.22097 6.20564 5.40124 6.38591 5.40124 6.60813C5.40124 6.83036 5.22097 7.01061 4.99875 7.01061Z" fill="#EF3948"/>
</svg>
