<svg width="30" height="30" viewBox="0 0 30 30" fill="none" xmlns="http://www.w3.org/2000/svg">
<path d="M27.1875 15C27.1875 18.2323 25.9035 21.3323 23.6179 23.6179C21.3323 25.9035 18.2323 27.1875 15 27.1875C11.7677 27.1875 8.66774 25.9035 6.38214 23.6179C4.09654 21.3323 2.8125 18.2323 2.8125 15C2.8125 11.7677 4.09654 8.66774 6.38214 6.38214C8.66774 4.09654 11.7677 2.8125 15 2.8125C18.2323 2.8125 21.3323 4.09654 23.6179 6.38214C25.9035 8.66774 27.1875 11.7677 27.1875 15ZM0 15C0 18.9782 1.58035 22.7936 4.3934 25.6066C7.20644 28.4196 11.0218 30 15 30C18.9782 30 22.7936 28.4196 25.6066 25.6066C28.4196 22.7936 30 18.9782 30 15C30 11.0218 28.4196 7.20644 25.6066 4.3934C22.7936 1.58035 18.9782 0 15 0C11.0218 0 7.20644 1.58035 4.3934 4.3934C1.58035 7.20644 0 11.0218 0 15ZM13.5938 7.03125V15C13.5938 15.4688 13.8281 15.9082 14.2207 16.1719L19.8457 19.9219C20.4902 20.3555 21.3633 20.1797 21.7969 19.5293C22.2305 18.8789 22.0547 18.0117 21.4043 17.5781L16.4062 14.25V7.03125C16.4062 6.25195 15.7793 5.625 15 5.625C14.2207 5.625 13.5938 6.25195 13.5938 7.03125Z" fill="#DF0A0A"/>
</svg>
