<svg width="753" height="776" viewBox="0 0 753 776" fill="none" xmlns="http://www.w3.org/2000/svg">
<mask id="mask0_435_24" style="mask-type:luminance" maskUnits="userSpaceOnUse" x="0" y="0" width="753" height="776">
<path d="M690.001 564.888C608.335 696.221 489.168 766.221 332.501 774.888C175.835 783.554 74.3348 717.888 28.0014 577.888C-18.3319 437.888 -7.16521 317.221 61.5014 215.888C130.168 114.554 233.335 46.2209 371.001 10.8876C508.668 -24.4457 616.668 26.2209 695.001 162.888C773.335 299.554 771.668 433.554 690.001 564.888Z" fill="white"/>
</mask>
<g mask="url(#mask0_435_24)">
<path d="M690.001 564.888C608.335 696.221 489.168 766.221 332.501 774.888C175.835 783.554 74.3348 717.888 28.0014 577.888C-18.3319 437.888 -7.16521 317.221 61.5014 215.888C130.168 114.554 233.335 46.2209 371.001 10.8876C508.668 -24.4457 616.668 26.2209 695.001 162.888C773.335 299.554 771.668 433.554 690.001 564.888Z" fill="#D5D5D5"/>
</g>
</svg>
