<svg width="55" height="58" viewBox="0 0 55 58" fill="none" xmlns="http://www.w3.org/2000/svg">
<g clip-path="url(#clip0_361_1715)">
<g clip-path="url(#clip1_361_1715)">
<g clip-path="url(#clip2_361_1715)">
<g opacity="0.4">
<path d="M40.3097 47.6554L33.5411 37.2754L33.0135 43.9044L27.7876 48.644L40.3097 47.6554Z" fill="#DF0A0A"/>
<path d="M34.6563 45.1129C34.6563 45.1129 33.5705 45.386 32.3021 44.7663C31.0743 44.2368 29.3694 43.3807 27.7763 42.041C27.7356 41.9509 27.5631 41.8121 27.4311 41.7632C27.35 41.5832 27.0861 41.4855 26.9137 41.3467C26.7411 41.2078 26.528 40.9789 26.2236 40.7912C26.0105 40.5624 25.7061 40.3747 25.4524 40.0558C24.8943 39.5492 24.2955 38.9526 23.5649 38.3071C22.9256 37.6205 22.1543 36.885 21.5252 35.9772C21.4846 35.8871 21.4034 35.7071 21.2715 35.6582C21.2309 35.5682 21.1497 35.3882 21.0178 35.3394C20.896 35.0693 20.6829 34.8404 20.4698 34.6116C20.4292 34.5215 20.348 34.3415 20.2669 34.1614C20.1856 33.9814 20.1451 33.8914 20.0638 33.7114C19.9827 33.5313 19.9421 33.4413 19.8609 33.2613L19.7797 33.0812L19.6985 32.9011C19.6174 32.7211 19.5768 32.6311 19.4956 32.4511C19.4144 32.271 19.3738 32.181 19.2926 32.001C19.1708 31.7309 19.0085 31.3708 18.8867 31.1008C18.8055 30.9208 18.7649 30.8307 18.6837 30.6507C18.6026 30.4706 18.562 30.3806 18.4808 30.2005C18.3996 30.0205 18.359 29.9305 18.2778 29.7505C18.1967 29.5705 18.156 29.4804 18.0749 29.3004C17.5066 28.0401 17.2529 26.7463 16.9585 25.3625C16.6642 23.9787 16.5932 22.6025 16.6134 21.1852C16.6337 19.7678 16.7859 18.3993 17.07 17.0797C17.3541 15.76 17.7702 14.4891 18.2674 13.3983C18.724 12.2175 19.3531 11.1755 20.0229 10.2236C20.6926 9.27166 21.3115 8.45092 21.9711 7.72021C22.1538 7.63786 22.3466 7.33427 22.4886 7.16187C22.58 7.12071 22.6713 7.07953 22.722 6.94831C22.7728 6.81712 22.9048 6.86596 22.9554 6.73475C23.0468 6.69357 23.1381 6.65237 23.1889 6.52119C23.2802 6.48 23.3715 6.43882 23.4628 6.39763C23.6455 6.31528 23.7875 6.14288 23.9296 5.97051C24.1122 5.88814 24.2949 5.80578 24.4369 5.63339C24.4369 5.63339 24.6197 5.55104 24.711 5.50985C24.711 5.50985 24.711 5.50985 24.8023 5.46867C24.8023 5.46867 24.8023 5.46867 24.8936 5.42748C25.0763 5.34513 25.1676 5.30395 25.3502 5.22157L25.533 5.13923C25.533 5.13923 25.533 5.13923 25.6243 5.09804C25.6243 5.09804 25.6243 5.09804 25.7156 5.05685C25.9895 4.9333 26.1722 4.85095 26.4462 4.72739C26.4462 4.72739 26.4462 4.72739 26.5375 4.6862C26.5375 4.6862 26.7202 4.60385 26.8115 4.56267C26.568 4.02255 26.7506 3.94018 26.7506 3.94018C26.7506 3.94018 26.6999 4.07139 26.4665 4.28496L26.2839 4.36733C26.2839 4.36733 26.2839 4.36733 26.1925 4.40849C26.0098 4.49086 25.8678 4.66324 25.6344 4.87682C25.6344 4.87682 25.6344 4.87682 25.543 4.91799C25.543 4.91799 25.3604 5.00036 25.2691 5.04154C25.1778 5.08273 25.0357 5.2551 24.8936 5.42748C24.8936 5.42748 24.8936 5.42748 24.8023 5.46867C24.8023 5.46867 24.8023 5.46867 24.711 5.50985L24.5283 5.59222C24.3456 5.67457 24.2949 5.80578 24.1528 5.97816C23.9702 6.06053 23.8687 6.32293 23.7774 6.36412C23.7774 6.36412 23.5947 6.44647 23.544 6.57768C23.544 6.57768 23.3613 6.66004 23.3106 6.79125C23.3106 6.79125 23.128 6.87362 23.0772 7.00481C23.0772 7.00481 22.8946 7.08718 22.8438 7.21837C22.7018 7.39077 22.5597 7.56314 22.4176 7.73552C21.89 8.51507 21.271 9.33581 20.6926 10.2466C20.1142 11.1573 19.7083 12.2069 19.3025 13.2566C18.9371 14.3962 18.5718 15.5358 18.3385 16.7243C18.1051 17.9128 18.0443 19.2401 18.0341 20.4362C18.0646 21.7224 18.1863 22.9673 18.4908 24.1299C18.7952 25.2926 19.1403 26.5452 19.6274 27.6254C19.7086 27.8054 19.7492 27.8955 19.8303 28.0755C19.9116 28.2555 19.9522 28.3456 20.0333 28.5256C20.074 28.6156 20.1551 28.7956 20.1957 28.8856C20.2363 28.9756 20.3175 29.1557 20.358 29.2458C20.4798 29.5158 20.6017 29.7859 20.7234 30.0559C20.764 30.1459 20.8452 30.326 20.8858 30.416C20.9264 30.506 21.0075 30.6861 21.0481 30.7761C21.0481 30.7761 21.0887 30.8661 21.1293 30.9561C21.1699 31.0461 21.1699 31.0461 21.2105 31.1362C21.2511 31.2262 21.3323 31.4062 21.3729 31.4962C21.4134 31.5862 21.4947 31.7663 21.5352 31.8563C21.5758 31.9464 21.657 32.1264 21.6976 32.2164C21.8194 32.4864 21.9919 32.6253 22.205 32.8542C22.2456 32.9442 22.3268 33.1242 22.4587 33.173C22.4993 33.2631 22.5805 33.4432 22.7124 33.492C24.0722 35.0453 25.4016 36.2874 26.5178 37.3006C26.7309 37.5294 27.0354 37.7171 27.2485 37.946C27.4615 38.1748 27.7254 38.2725 27.9385 38.5014C28.111 38.6403 28.2835 38.7791 28.456 38.918C28.5372 39.098 28.7604 39.1057 28.8011 39.1957C30.3537 40.4454 31.7337 41.5563 32.6776 42.4306C33.6213 43.3049 34.1692 44.0328 33.9764 44.3363L34.6563 45.1129Z" fill="#DF0A0A"/>
<path d="M18.1074 30.5865C18.1074 30.5865 18.1074 30.5866 18.0668 30.4965C17.9857 30.3165 17.945 30.2265 17.8639 30.0464C17.8233 29.9564 17.7421 29.7764 17.7015 29.6864C17.1332 28.4261 16.8389 27.0423 16.5852 25.7485C16.2909 24.3647 16.2198 22.9885 16.2401 21.5711C16.2603 20.1538 16.4125 18.7853 16.6966 17.4656C16.9808 16.1459 17.3968 14.8751 17.8534 13.6943C18.3507 12.6035 18.9392 11.4715 19.6089 10.5196C20.1873 9.60881 20.8063 8.78808 21.5572 8.01617C21.6485 7.97499 21.7906 7.80262 21.8413 7.6714L22.1153 7.54787L22.2168 7.28546L22.3994 7.20309L22.5821 7.12074C22.5821 7.12074 22.6734 7.07956 22.7647 7.03837C22.7647 7.03837 22.8561 6.99719 22.9474 6.956C22.9474 6.956 22.9474 6.956 23.0387 6.91481L23.5055 6.48769C23.5055 6.48769 23.7795 6.36415 23.8302 6.23294C23.8302 6.23294 23.9215 6.19176 24.0128 6.15057L24.2869 6.02704C24.2869 6.02704 24.2869 6.02704 24.3782 5.98585C24.5609 5.9035 24.6522 5.86232 24.8348 5.77994L25.0174 5.69758L25.1088 5.65641C25.1088 5.65641 25.5654 4.47559 25.8394 4.35203C25.8394 4.35203 25.8394 4.35203 25.9308 4.31087C25.9308 4.31087 26.2047 4.18731 26.296 4.14612C26.4787 4.06377 26.57 4.02259 26.57 4.02259L26.6614 3.9814C26.6614 3.9814 26.6614 3.9814 26.57 4.02259C26.57 4.02259 26.3874 4.10496 26.3366 4.23615L26.154 4.31852L26.0627 4.35971C25.88 4.44206 25.738 4.61445 25.5046 4.82801C25.5046 4.82801 25.5046 4.82801 25.4132 4.86918C25.4132 4.86918 25.2306 4.95155 25.1392 4.99274L24.7637 5.37867C24.7637 5.37867 24.7637 5.37867 24.6724 5.41986L24.4898 5.50223C24.4898 5.50223 24.3985 5.54341 24.3072 5.5846C24.2158 5.62577 24.1245 5.66695 24.0738 5.79816C23.9825 5.83935 23.8911 5.88052 23.8404 6.01173L23.6577 6.09409C23.6577 6.09409 23.6983 6.1841 23.607 6.22529C23.607 6.22529 23.5157 6.26648 23.4243 6.30766C23.4243 6.30766 23.333 6.34884 23.2822 6.48003L22.9575 6.73478C22.9575 6.73478 22.8662 6.77597 22.8154 6.90716C22.7241 6.94835 22.6734 7.07956 22.5313 7.25194L22.3487 7.3343C21.7703 8.24505 21.1919 9.15582 20.7049 10.0254C20.167 11.0262 19.6292 12.0269 19.3146 13.0354C18.9494 14.175 18.5841 15.3146 18.3507 16.5031C18.1173 17.6916 18.0565 19.0189 18.0463 20.215C18.0768 21.5012 18.1986 22.7462 18.503 23.9088C18.7162 25.1125 19.1526 26.3239 19.6397 27.4042C19.6803 27.4942 19.7614 27.6742 19.8021 27.7642C19.8021 27.7642 19.8832 27.9444 19.9238 28.0344L20.005 28.2144C20.0456 28.3044 20.0861 28.3944 20.1267 28.4844C20.1267 28.4844 20.1267 28.4844 20.1674 28.5745C20.1674 28.5745 20.2079 28.6645 20.2485 28.7545C20.2485 28.7545 20.3298 28.9345 20.3703 29.0245L20.4515 29.2046C20.5327 29.3847 20.6138 29.5647 20.6951 29.7447C20.6951 29.7447 20.7356 29.8347 20.7762 29.9247C20.7762 29.9247 20.8574 30.1048 20.898 30.1948L20.9386 30.2848C20.9386 30.2848 21.0198 30.4648 21.0604 30.5549C21.0604 30.5549 21.0604 30.5549 21.101 30.645C21.101 30.645 21.101 30.645 21.1415 30.735C21.1415 30.735 21.2633 31.005 21.3039 31.095L21.3445 31.185C21.3445 31.185 21.4257 31.3651 21.4663 31.4551C21.4663 31.4551 21.5881 31.7251 21.6287 31.8151C21.6287 31.8151 21.6287 31.8151 21.6692 31.9052C21.7505 32.0853 21.9229 32.2241 22.136 32.453C22.136 32.453 22.2173 32.633 22.3492 32.6818C22.3492 32.6818 22.3897 32.7718 22.4303 32.8619C22.4303 32.8619 22.471 32.9519 22.5115 33.0419C23.1508 33.7286 23.7902 34.4151 24.5613 35.1506C25.1195 35.6572 25.6776 36.1639 26.4083 36.8093C26.6214 37.0381 26.7939 37.177 26.9664 37.3159C26.9664 37.3159 27.007 37.4059 27.1389 37.4548C27.1389 37.4548 27.2201 37.6348 27.352 37.6836C27.4332 37.8636 27.6564 37.8713 27.7376 38.0513C27.7376 38.0513 28.0827 38.329 28.2552 38.4679C28.3363 38.648 28.5596 38.6557 28.6002 38.7457C29.4627 39.4399 30.1528 39.9954 30.7109 40.5019C31.401 41.0573 31.9591 41.564 32.3853 42.0217C32.9434 42.5284 33.2377 42.9373 33.4508 43.1661C33.532 43.3461 33.6132 43.5262 33.6538 43.6162C33.6944 43.7062 33.735 43.7962 33.6842 43.9275C33.4914 44.231 32.5578 44.1104 31.33 43.5808C30.6704 43.3366 29.9296 42.9124 29.1888 42.4881C28.4074 41.9739 27.5347 41.5009 26.8041 40.8554C26.8041 40.8554 26.7229 40.6754 26.4997 40.6677C26.4997 40.6677 26.4997 40.6677 26.459 40.5777C26.3779 40.3977 26.114 40.3 25.9416 40.1612C25.8603 39.9811 25.5966 39.8834 25.424 39.7445C25.424 39.7445 25.3428 39.5645 25.2515 39.6057C25.2515 39.6057 25.2109 39.5157 25.1703 39.4256C24.9572 39.1968 24.7847 39.0579 24.5716 38.8291C23.8409 38.1836 23.2422 37.587 22.6841 37.0804C21.9128 36.3449 21.233 35.5683 20.6444 34.7505L20.5632 34.5704L20.482 34.3903C20.482 34.3903 20.4414 34.3003 20.4009 34.2103C20.4009 34.2103 20.3603 34.1203 20.3196 34.0303C20.1979 33.7602 20.0254 33.6214 19.8122 33.3925C19.8122 33.3925 19.8122 33.3925 19.7717 33.3025C19.7311 33.2124 19.6499 33.0324 19.6093 32.9424C19.6093 32.9424 19.4875 32.6723 19.4063 32.4923C19.3251 32.3123 19.2845 32.2222 19.2034 32.0422L19.1222 31.8621C19.1222 31.8621 19.0816 31.7721 19.041 31.6821L18.8381 31.232C18.8381 31.232 18.7568 31.052 18.7163 30.962C18.7163 30.962 18.6757 30.872 18.635 30.7819C18.5539 30.6019 18.4321 30.3318 18.3104 30.0617L18.2292 29.8817C18.1886 29.7917 18.148 29.7017 18.1073 29.6117C18.1073 29.6117 18.0668 29.5217 18.0262 29.4316C18.0262 29.4316 18.0262 29.4316 17.9856 29.3416L17.9044 29.1615L18.1074 30.5865ZM26.7527 3.94022C26.7527 3.94022 26.57 4.02259 26.296 4.14612C26.296 4.14612 26.1134 4.22849 26.0221 4.26968L25.9308 4.31087C25.9308 4.31087 25.4741 4.51677 25.2001 4.64031C25.2001 4.64031 25.2001 4.64031 25.1088 4.68149L24.8348 4.80505C24.6521 4.8874 24.5608 4.92859 24.3782 5.01096C24.3782 5.01096 24.3782 5.01096 24.2869 5.05214L24.0129 5.17568C24.0129 5.17568 23.9215 5.21686 23.8708 5.34805C23.7795 5.38924 23.5968 5.47161 23.5461 5.6028L23.0793 6.02995C23.0793 6.02995 23.0793 6.02995 22.9879 6.07111C22.9879 6.07111 22.8966 6.11229 22.8053 6.15348C22.8053 6.15348 22.714 6.19467 22.6227 6.23585L22.44 6.3182L22.2573 6.40057L22.0747 6.48295L21.8007 6.60648C21.8007 6.60648 21.6079 6.91007 21.5572 7.04128C20.8063 7.81318 20.2279 8.72392 19.6089 9.54466C18.9797 10.5866 18.3506 11.6286 17.8534 12.7193C17.3055 13.9413 16.9807 15.171 16.656 16.4007C16.3719 17.7203 16.2197 19.0889 16.1995 20.5062C16.1792 21.9236 16.2503 23.2997 16.5446 24.6835C16.7983 25.9773 17.1839 27.32 17.6609 28.6214C17.7015 28.7115 17.7827 28.8915 17.8233 28.9815C17.9044 29.1615 17.945 29.2516 18.0262 29.4316C18.0668 29.5217 18.1074 29.6117 18.1886 29.7917C18.1886 29.7917 18.1886 29.7917 18.2292 29.8817C18.2292 29.8817 18.2697 29.9717 18.3104 30.0617C18.351 30.1518 18.3915 30.2418 18.4321 30.3318L18.5133 30.5118C18.5945 30.6919 18.7163 30.962 18.8381 31.232C18.8381 31.232 18.8787 31.322 18.9192 31.412C18.9598 31.5021 19.0005 31.5921 19.041 31.6821L19.244 32.1322C19.244 32.1322 19.2845 32.2222 19.3251 32.3123L19.4063 32.4923C19.4875 32.6723 19.5282 32.7623 19.6093 32.9424C19.6905 33.1224 19.7311 33.2124 19.8122 33.3925C19.8122 33.3925 19.934 33.6626 19.9746 33.7526C19.9746 33.7526 19.9746 33.7526 20.0152 33.8426C20.137 34.1126 20.3095 34.2515 20.5227 34.4804C20.5227 34.4804 20.5632 34.5704 20.6038 34.6605C20.6038 34.6605 20.6444 34.7505 20.6849 34.8405L20.7662 35.0205C20.7662 35.0205 20.8473 35.2005 20.9386 35.1594C21.6186 35.936 22.2985 36.7127 22.9784 37.4894C23.5771 38.0859 24.1759 38.6826 24.8659 39.238C25.079 39.4668 25.2515 39.6057 25.4646 39.8345C25.4646 39.8345 25.5052 39.9245 25.5458 40.0147C25.5458 40.0147 25.627 40.1947 25.7183 40.1535C25.7995 40.3335 26.0633 40.4312 26.2358 40.57C26.4083 40.7089 26.5808 40.8477 26.7534 40.9866C26.7534 40.9866 26.7534 40.9866 26.794 41.0766C26.8345 41.1666 26.9665 41.2155 27.0984 41.2643C27.9203 41.8686 28.7018 42.3828 29.4831 42.8971C30.2239 43.3213 30.9647 43.7455 31.6243 43.9898C32.2839 44.234 32.8115 44.4293 33.258 44.4446C33.7046 44.4599 33.9278 44.4676 34.0698 44.2952C34.0698 44.2952 34.1206 44.164 34.0394 43.984C33.9988 43.894 33.9176 43.7138 33.8365 43.5338C33.6741 43.1738 33.2884 42.806 32.771 42.3894C32.3447 41.9317 31.7866 41.4251 31.0966 40.8697C30.5384 40.3631 29.8484 39.8076 28.9858 39.1134C28.9858 39.1134 28.8133 38.9745 28.6407 38.8357C28.5596 38.6556 28.2957 38.558 28.1233 38.4191C28.1233 38.4191 27.8188 38.2314 27.6463 38.0925C27.6463 38.0925 27.5651 37.9125 27.4332 37.8636C27.4332 37.8636 27.3926 37.7736 27.2607 37.7248C27.0881 37.5859 26.8751 37.3571 26.7026 37.2183C26.0125 36.6628 25.4138 36.0662 24.8557 35.5595C24.0844 34.8241 23.4451 34.1375 22.8058 33.4509C22.8058 33.4509 22.7652 33.3608 22.7246 33.2708C22.7246 33.2708 22.684 33.1807 22.6434 33.0907C22.6029 33.0007 22.5623 32.9107 22.5217 32.8207C22.5217 32.8207 22.2679 32.5018 22.0549 32.2729C22.0549 32.2729 22.0549 32.2729 22.0142 32.1829C21.9737 32.0929 21.8925 31.9129 21.8519 31.8228C21.8519 31.8228 21.7707 31.6427 21.7301 31.5527L21.6896 31.4627C21.6896 31.4627 21.5678 31.1927 21.4358 31.1439C21.4358 31.1439 21.4358 31.1438 21.3952 31.0538C21.3952 31.0538 21.3952 31.0538 21.3547 30.9638C21.3547 30.9638 21.2734 30.7838 21.2328 30.6938L21.1923 30.6038C21.1923 30.6038 21.1111 30.4236 21.0705 30.3336C21.0705 30.3336 21.0299 30.2436 20.9893 30.1536C20.9081 29.9736 20.827 29.7936 20.7458 29.6135L20.6646 29.4335C20.6646 29.4335 20.5834 29.2535 20.5428 29.1634C20.5428 29.1634 20.5022 29.0734 20.4616 28.9833C20.4616 28.9833 20.4616 28.9833 20.4211 28.8933C20.3804 28.8033 20.3398 28.7133 20.2993 28.6233L20.2181 28.4432C20.2181 28.4432 20.1369 28.2632 20.0963 28.1732C20.0557 28.0832 19.9745 27.9032 19.9339 27.8131C19.4468 26.7329 19.1018 25.4803 18.7974 24.3177C18.5842 23.1139 18.3305 21.8201 18.3406 20.6239C18.3101 19.3378 18.4116 18.1005 18.645 16.912C18.8784 15.7236 19.1117 14.5351 19.6089 13.4443C20.0148 12.3947 20.4207 11.345 20.9991 10.4343C21.4861 9.56472 22.1052 8.744 22.7242 7.92326L22.9068 7.84089C22.9068 7.84089 22.9677 7.48847 23.1504 7.40611C23.1504 7.40611 23.2417 7.36493 23.2924 7.23372L23.5664 7.11018L23.4853 6.93015C23.4853 6.93015 23.5766 6.88896 23.6273 6.75775C23.6273 6.75775 23.7186 6.71656 23.81 6.6754C23.81 6.6754 23.81 6.6754 23.9013 6.63421L24.0839 6.55184C24.0839 6.55184 24.1854 6.28944 24.2767 6.24826C24.368 6.20707 24.4594 6.1659 24.5101 6.03469C24.5101 6.03469 24.6014 5.99351 24.6927 5.95233C24.6927 5.95233 24.7841 5.91115 24.8754 5.86997L25.0581 5.7876L25.4336 5.40166C25.4336 5.40166 25.5249 5.36047 25.6162 5.31929L25.7988 5.23692C25.7988 5.23692 26.1743 4.85098 26.3569 4.76861L26.2758 4.58858C26.2758 4.58858 26.5497 4.46502 26.641 4.42384C26.7425 4.16143 26.7933 4.03024 26.7527 3.94022Z" fill="#DF0A0A"/>
</g>
</g>
</g>
</g>
<defs>
<clipPath id="clip0_361_1715">
<rect width="42.9659" height="48.1227" fill="white" transform="translate(12.4023 0.363159) rotate(14)"/>
</clipPath>
<clipPath id="clip1_361_1715">
<rect width="42.9659" height="48.1227" fill="white" transform="translate(12.4023 0.363159) rotate(14)"/>
</clipPath>
<clipPath id="clip2_361_1715">
<rect width="42.9711" height="48.1277" fill="white" transform="translate(12.4023 0.363159) rotate(14)"/>
</clipPath>
</defs>
</svg>
