<svg width="158" height="46" viewBox="0 0 158 46" fill="none" xmlns="http://www.w3.org/2000/svg">
<path d="M29.5697 14.2264C29.5697 15.3513 29.4258 16.4305 29.138 17.4639C28.8371 18.4973 28.4185 19.5177 27.8822 20.5249C27.8822 20.538 27.8626 20.5838 27.8233 20.6622C27.771 20.7538 27.7187 20.8519 27.6664 20.9566C27.601 21.0743 27.5486 21.1724 27.5094 21.2509C27.4571 21.3425 27.4244 21.3948 27.4113 21.4079C26.7442 22.1012 26.0574 22.7814 25.351 23.4485C24.6447 24.1156 23.9514 24.7893 23.2711 25.4695C22.5255 26.2021 21.7668 26.7776 20.995 27.1962C20.2233 27.6017 19.3076 27.8045 18.248 27.8045C17.6463 27.8045 17.0511 27.7587 16.4625 27.6671C15.8607 27.5625 15.2656 27.4513 14.6769 27.3336C14.0752 27.2028 13.48 27.085 12.8914 26.9804C12.2896 26.8888 11.6879 26.843 11.0862 26.843C10.0397 26.843 8.9605 26.9542 7.84862 27.1766C6.73673 27.3859 5.71641 27.7391 4.78766 28.2362L4.57182 27.9615C5.3436 27.1766 6.19387 26.4768 7.12262 25.862C8.03829 25.2602 9.02591 24.8089 10.0855 24.5081V6.02457L12.185 3.96431C11.7141 4.01664 11.1777 4.09512 10.576 4.19977C9.9612 4.3175 9.33331 4.46793 8.69234 4.65107C8.03829 4.8342 7.39732 5.05658 6.76943 5.3182C6.14154 5.5929 5.5856 5.91339 5.1016 6.27965C4.60452 6.64592 4.20555 7.06452 3.90469 7.53543C3.60382 8.01943 3.45339 8.56229 3.45339 9.16402C3.45339 9.58261 3.53842 9.9685 3.70847 10.3217C3.87852 10.6749 4.1009 10.9954 4.3756 11.2831C4.63722 11.584 4.93809 11.8522 5.27819 12.0876C5.60522 12.3231 5.93225 12.5389 6.25927 12.7351L4.06166 15.4625C3.65615 15.4102 3.28334 15.2925 2.94323 15.1093C2.60312 14.9262 2.31534 14.6908 2.07988 14.403C1.83134 14.1152 1.64167 13.7882 1.51086 13.4219C1.36697 13.0687 1.29502 12.6894 1.29502 12.2838C1.29502 11.6821 1.34735 11.0673 1.45199 10.4394C1.55664 9.82461 1.7267 9.23597 1.96215 8.67348C2.0014 8.595 2.0341 8.51651 2.06026 8.43802C2.07334 8.37262 2.12567 8.30721 2.21723 8.24181C3.23755 7.24765 4.26441 6.26003 5.29782 5.27896C6.31814 4.31096 7.35154 3.34296 8.39802 2.37497C8.4111 2.34881 8.46342 2.30956 8.55499 2.25724C8.64656 2.218 8.74467 2.17221 8.84931 2.11989L9.12402 2.00216C9.2025 1.96292 9.25483 1.93675 9.28099 1.92367C10.2228 1.54432 11.2301 1.26962 12.3027 1.09957C13.3753 0.929514 14.4153 0.844487 15.4225 0.844487C16.6652 0.844487 17.8752 0.994919 19.0525 1.29578C20.2298 1.60973 21.3417 2.04794 22.3882 2.61043C23.4347 3.17291 24.4027 3.85312 25.2922 4.65107C26.1686 5.46209 26.9273 6.35814 27.5683 7.33922C28.1962 8.33338 28.6867 9.40602 29.0399 10.5571L29.5697 14.2264ZM26.6068 16.424C26.6068 15.2859 26.4564 14.1806 26.1555 13.1079C25.8546 12.0484 25.4295 11.0542 24.8801 10.1255C24.3307 9.2098 23.6701 8.36608 22.8983 7.5943C22.1266 6.8356 21.2763 6.18155 20.3475 5.63214C19.4188 5.09582 18.4181 4.67723 17.3454 4.37636C16.2728 4.0755 15.1675 3.92507 14.0294 3.92507H13.6173V22.2908L11.6552 24.1549C12.0738 24.0633 12.5055 24.0044 12.9502 23.9783C13.3819 23.9521 13.807 23.939 14.2256 23.939C14.8012 23.939 15.3767 23.9783 15.9523 24.0568C16.5148 24.1483 17.0773 24.2464 17.6398 24.3511C18.2022 24.4688 18.7713 24.5669 19.3468 24.6454C19.9093 24.737 20.4783 24.7828 21.0539 24.7828C21.8388 24.7828 22.5255 24.6585 23.1142 24.41C23.6897 24.1745 24.1803 23.854 24.5858 23.4485C24.9913 23.043 25.3314 22.5655 25.6061 22.0161C25.8677 21.4667 26.0705 20.8781 26.2144 20.2502C26.3583 19.6354 26.4629 19.001 26.5283 18.3469L26.6068 16.424ZM46.8759 25.6657C46.6012 25.8358 46.2938 26.0255 45.9536 26.2348C45.6135 26.4571 45.2669 26.6599 44.9137 26.843C44.5474 27.0392 44.1812 27.2028 43.8149 27.3336C43.4486 27.4644 43.102 27.5298 42.775 27.5298C42.1863 27.5298 41.7285 27.3663 41.4014 27.0392C41.0744 26.6991 40.852 26.2544 40.7343 25.705C40.1064 26.4114 39.3739 26.9869 38.5367 27.4317C37.6995 27.8633 36.7969 28.0792 35.8289 28.0792C35.358 28.0792 34.9133 27.9876 34.4947 27.8045C34.063 27.6213 33.6902 27.3728 33.3762 27.0589C33.0623 26.7449 32.8138 26.3787 32.6306 25.9601C32.4344 25.5415 32.3363 25.0967 32.3363 24.6258C32.3363 24.0502 32.4867 23.527 32.7876 23.0561C33.0885 22.5852 33.4809 22.16 33.9649 21.7807C34.4489 21.4144 35.0048 21.0808 35.6327 20.78C36.2475 20.4922 36.8689 20.2371 37.4968 20.0147C38.1247 19.8054 38.7395 19.6288 39.3412 19.485C39.9298 19.3411 40.4465 19.2233 40.8913 19.1318C40.8913 18.9225 40.8978 18.7263 40.9109 18.5431C40.924 18.36 40.9305 18.1638 40.9305 17.9545C40.9305 17.4312 40.839 16.9799 40.6558 16.6006C40.4727 16.2343 40.2242 15.9269 39.9102 15.6784C39.5963 15.4298 39.23 15.2467 38.8114 15.129C38.3797 15.0112 37.9219 14.9524 37.4379 14.9524C36.5091 14.9524 35.6262 15.0963 34.789 15.384C33.9518 15.6849 33.1604 16.1035 32.4148 16.6398L32.1793 16.3455C32.6241 15.8746 33.1277 15.4168 33.6902 14.972C34.2527 14.5272 34.8479 14.1283 35.4757 13.7751C36.1036 13.4219 36.7577 13.1407 37.4379 12.9314C38.105 12.7221 38.7722 12.6174 39.4393 12.6174C39.9887 12.6174 40.5446 12.709 41.1071 12.8921C41.6565 13.0752 42.1536 13.3369 42.5984 13.677C43.03 14.0302 43.3832 14.4488 43.6579 14.9328C43.9326 15.4168 44.07 15.9596 44.07 16.5613C44.07 17.6209 44.0177 18.6805 43.913 19.74C43.7953 20.8127 43.7364 21.8788 43.7364 22.9383C43.7364 23.2654 43.7626 23.5793 43.8149 23.8802C43.8672 24.181 43.9653 24.4492 44.1092 24.6847C44.2531 24.9201 44.4493 25.1098 44.6979 25.2537C44.9464 25.3976 45.2604 25.4695 45.6397 25.4695C45.8228 25.4695 46.006 25.4564 46.1891 25.4303C46.3592 25.4172 46.5358 25.378 46.7189 25.3125L46.8759 25.6657ZM40.852 19.6027C40.368 19.6812 39.799 19.7989 39.145 19.9559C38.4909 20.1259 37.8696 20.3483 37.2809 20.623C36.6792 20.9108 36.1756 21.2705 35.7701 21.7022C35.3515 22.1469 35.1422 22.6833 35.1422 23.3112C35.1422 24.253 35.43 24.9855 36.0055 25.5088C36.568 26.0451 37.3136 26.3132 38.2424 26.3132C38.7002 26.3132 39.1319 26.2086 39.5374 25.9993C39.9298 25.79 40.2896 25.5218 40.6166 25.1948C40.5773 24.9724 40.5577 24.7501 40.5577 24.5277C40.5446 24.3053 40.5381 24.0829 40.5381 23.8606C40.5381 23.1542 40.5773 22.4413 40.6558 21.7218L40.852 19.6027ZM60.5913 25.6657C59.9242 26.2544 59.1589 26.7318 58.2956 27.0981C57.4192 27.4644 56.5362 27.6475 55.6467 27.6475C54.8618 27.6475 54.1882 27.5036 53.6257 27.2158C53.0632 26.915 52.5988 26.5095 52.2325 25.9993C51.8663 25.5022 51.5981 24.9267 51.4281 24.2726C51.258 23.6316 51.173 22.958 51.173 22.2516V14.6973H50.5843C50.1788 14.6973 49.7995 14.7496 49.4463 14.8543C49.08 14.972 48.7726 15.2009 48.5241 15.541L48.1709 15.384C48.2232 15.0178 48.3606 14.6842 48.5829 14.3833C48.7922 14.0956 49.0473 13.847 49.3482 13.6377C49.636 13.4284 49.963 13.2715 50.3292 13.1668C50.6824 13.0622 51.0356 13.0098 51.3888 13.0098C51.6243 12.0418 52.0952 11.2701 52.8016 10.6945C53.5079 10.1189 54.332 9.73959 55.2739 9.55645L55.4308 9.85077C55.0123 10.3348 54.7376 10.8319 54.6067 11.342C54.4759 11.8522 54.3909 12.4081 54.3517 13.0098H57.4911C57.9359 13.0098 58.3545 12.9248 58.7469 12.7548C59.1262 12.5978 59.4598 12.3362 59.7476 11.9699L60.0615 12.1269C59.9046 12.8725 59.6037 13.4873 59.1589 13.9713C58.7142 14.4553 58.0798 14.6973 57.2557 14.6973H54.3124V21.6237C54.3124 22.9056 54.6264 23.9129 55.2543 24.6454C55.8821 25.391 56.8567 25.7638 58.1779 25.7638C58.5572 25.7638 58.93 25.7181 59.2963 25.6265C59.6495 25.548 60.0092 25.4564 60.3755 25.3518L60.5913 25.6657ZM77.2108 25.6657C76.9361 25.8358 76.6287 26.0255 76.2886 26.2348C75.9484 26.4571 75.6018 26.6599 75.2486 26.843C74.8823 27.0392 74.5161 27.2028 74.1498 27.3336C73.7835 27.4644 73.4369 27.5298 73.1099 27.5298C72.5212 27.5298 72.0634 27.3663 71.7364 27.0392C71.4093 26.6991 71.187 26.2544 71.0692 25.705C70.4413 26.4114 69.7088 26.9869 68.8716 27.4317C68.0344 27.8633 67.1318 28.0792 66.1638 28.0792C65.6929 28.0792 65.2482 27.9876 64.8296 27.8045C64.3979 27.6213 64.0251 27.3728 63.7111 27.0589C63.3972 26.7449 63.1487 26.3787 62.9655 25.9601C62.7693 25.5415 62.6712 25.0967 62.6712 24.6258C62.6712 24.0502 62.8216 23.527 63.1225 23.0561C63.4234 22.5852 63.8158 22.16 64.2998 21.7807C64.7838 21.4144 65.3397 21.0808 65.9676 20.78C66.5824 20.4922 67.2038 20.2371 67.8317 20.0147C68.4596 19.8054 69.0744 19.6288 69.6761 19.485C70.2647 19.3411 70.7814 19.2233 71.2262 19.1318C71.2262 18.9225 71.2327 18.7263 71.2458 18.5431C71.2589 18.36 71.2654 18.1638 71.2654 17.9545C71.2654 17.4312 71.1739 16.9799 70.9907 16.6006C70.8076 16.2343 70.5591 15.9269 70.2451 15.6784C69.9312 15.4298 69.5649 15.2467 69.1463 15.129C68.7146 15.0112 68.2568 14.9524 67.7728 14.9524C66.844 14.9524 65.9611 15.0963 65.1239 15.384C64.2867 15.6849 63.4953 16.1035 62.7497 16.6398L62.5142 16.3455C62.959 15.8746 63.4626 15.4168 64.0251 14.972C64.5876 14.5272 65.1828 14.1283 65.8106 13.7751C66.4385 13.4219 67.0926 13.1407 67.7728 12.9314C68.4399 12.7221 69.1071 12.6174 69.7742 12.6174C70.3236 12.6174 70.8795 12.709 71.442 12.8921C71.9914 13.0752 72.4885 13.3369 72.9333 13.677C73.3649 14.0302 73.7181 14.4488 73.9928 14.9328C74.2675 15.4168 74.4049 15.9596 74.4049 16.5613C74.4049 17.6209 74.3526 18.6805 74.2479 19.74C74.1302 20.8127 74.0713 21.8788 74.0713 22.9383C74.0713 23.2654 74.0975 23.5793 74.1498 23.8802C74.2021 24.181 74.3002 24.4492 74.4441 24.6847C74.588 24.9201 74.7842 25.1098 75.0328 25.2537C75.2813 25.3976 75.5953 25.4695 75.9746 25.4695C76.1577 25.4695 76.3409 25.4564 76.524 25.4303C76.6941 25.4172 76.8707 25.378 77.0538 25.3125L77.2108 25.6657ZM71.187 19.6027C70.703 19.6812 70.1339 19.7989 69.4799 19.9559C68.8258 20.1259 68.2045 20.3483 67.6158 20.623C67.0141 20.9108 66.5105 21.2705 66.105 21.7022C65.6864 22.1469 65.4771 22.6833 65.4771 23.3112C65.4771 24.253 65.7649 24.9855 66.3404 25.5088C66.9029 26.0451 67.6485 26.3132 68.5773 26.3132C69.0351 26.3132 69.4668 26.2086 69.8723 25.9993C70.2647 25.79 70.6245 25.5218 70.9515 25.1948C70.9122 24.9724 70.8926 24.7501 70.8926 24.5277C70.8795 24.3053 70.873 24.0829 70.873 23.8606C70.873 23.1542 70.9122 22.4413 70.9907 21.7218L71.187 19.6027ZM89.592 6.51511C89.5004 6.13576 89.3565 5.75641 89.1603 5.37706C88.951 4.99771 88.7024 4.65761 88.4147 4.35674C88.1138 4.05588 87.7802 3.80734 87.414 3.61112C87.0346 3.42799 86.6356 3.33642 86.2171 3.33642C85.7592 3.33642 85.406 3.4934 85.1575 3.80734C84.8959 4.13437 84.6997 4.52026 84.5688 4.96501C84.425 5.40977 84.3399 5.8676 84.3138 6.33852C84.2745 6.82252 84.2549 7.22803 84.2549 7.55505V13.0098H87.7083C88.5324 13.0098 89.2257 12.7155 89.7882 12.1269L90.1217 12.2838C90.0171 12.794 89.7947 13.278 89.4546 13.7358C89.1145 14.1937 88.6763 14.5142 88.14 14.6973H84.2549V31.5326C84.2549 32.3436 84.0587 33.0565 83.6663 33.6713C83.2607 34.2731 82.7506 34.7898 82.1358 35.2214C81.521 35.64 80.8408 35.9801 80.0951 36.2417C79.3495 36.4903 78.6301 36.6669 77.9368 36.7715L77.8583 36.3987C78.8655 36.0324 79.6635 35.483 80.2521 34.7505C80.8277 34.0049 81.1155 33.0827 81.1155 31.9839V14.6973H80.7034C79.9055 14.6973 79.2122 14.9785 78.6235 15.541L78.3488 15.384C78.4535 14.8608 78.6758 14.3768 79.0159 13.9321C79.3561 13.5004 79.7746 13.193 80.2717 13.0098H81.1155V9.55645C81.1155 8.53613 81.3051 7.627 81.6845 6.82906C82.0638 6.03111 82.5609 5.31166 83.1757 4.67069C83.7905 4.0428 84.4904 3.48031 85.2752 2.98324C86.0601 2.49924 86.858 2.05448 87.669 1.64897H88.2969C89.1472 1.64897 89.8928 1.88443 90.5338 2.35535C91.1617 2.83934 91.6784 3.43453 92.0839 4.14091L89.592 6.51511ZM98.2843 28.4128C97.3032 28.4128 96.3287 28.1969 95.3607 27.7652C94.3927 27.3205 93.5293 26.7318 92.7706 25.9993C91.9989 25.2798 91.3775 24.4492 90.9066 23.5074C90.4226 22.5786 90.1806 21.6106 90.1806 20.6034C90.1806 19.897 90.2591 19.2168 90.4161 18.5627C90.5599 17.9218 90.8412 17.307 91.2598 16.7183C91.7176 16.0773 92.2866 15.5149 92.9669 15.0309C93.634 14.5599 94.2946 14.1152 94.9486 13.6966C95.4719 13.3696 96.0278 13.1341 96.6165 12.9902C97.2051 12.8463 97.8003 12.7744 98.402 12.7744C98.9122 12.7744 99.4093 12.8398 99.8933 12.9706C100.377 13.1145 100.809 13.3238 101.188 13.5985C101.568 13.8732 101.875 14.2133 102.11 14.6188C102.346 15.0374 102.464 15.5214 102.464 16.0708C102.464 16.4502 102.372 16.823 102.189 17.1892C101.993 17.5555 101.751 17.8956 101.463 18.2096C101.162 18.5235 100.842 18.8047 100.502 19.0533C100.161 19.3149 99.8409 19.5242 99.5401 19.6812C98.6113 20.1782 97.6368 20.5772 96.6165 20.8781C95.5961 21.192 94.5758 21.4536 93.5555 21.6629C93.6471 21.8984 93.7386 22.1077 93.8302 22.2908C93.9218 22.474 94.0264 22.644 94.1441 22.801C94.2488 22.958 94.3665 23.1084 94.4973 23.2523C94.6281 23.4093 94.7917 23.5859 94.9879 23.7821C95.2233 24.0175 95.5569 24.2595 95.9886 24.5081C96.4202 24.7697 96.8846 25.0051 97.3817 25.2144C97.8657 25.4368 98.3497 25.6134 98.8337 25.7442C99.3046 25.8881 99.697 25.9601 100.011 25.9601C100.377 25.9601 100.737 25.9077 101.09 25.8031C101.443 25.6984 101.79 25.5676 102.13 25.4107C102.457 25.2537 102.778 25.0771 103.092 24.8809C103.406 24.6847 103.706 24.495 103.994 24.3118L104.19 24.7828L98.2843 28.4128ZM99.6186 19.0925C99.5924 18.4646 99.5008 17.8564 99.3439 17.2677C99.1738 16.6791 98.886 16.1297 98.4805 15.6195C98.1666 15.214 97.748 14.8739 97.2247 14.5992C96.6884 14.3245 96.1586 14.1871 95.6354 14.1871C95.0598 14.1871 94.602 14.3441 94.2619 14.6581C93.9087 14.9851 93.6405 15.3775 93.4574 15.8353C93.2612 16.3063 93.1369 16.8099 93.0846 17.3462C93.0192 17.8825 92.9865 18.3665 92.9865 18.7982C92.9865 19.2953 93.0126 19.7204 93.065 20.0736C93.1173 20.4268 93.235 20.8323 93.4182 21.2901L94.1049 20.1717C95.0337 20.0932 95.9624 19.9755 96.8912 19.8185L99.6186 19.0925ZM124.989 25.6657C124.715 25.8358 124.407 26.0255 124.067 26.2348C123.714 26.4571 123.361 26.6599 123.007 26.843C122.641 27.0392 122.275 27.2028 121.909 27.3336C121.529 27.4644 121.176 27.5298 120.849 27.5298C120.365 27.5298 119.973 27.4251 119.672 27.2158C119.371 27.0065 119.135 26.7384 118.965 26.4114C118.795 26.0974 118.678 25.7377 118.612 25.3322C118.547 24.9397 118.514 24.5473 118.514 24.1549C118.514 23.4093 118.56 22.6636 118.651 21.918C118.73 21.1724 118.769 20.4268 118.769 19.6812C118.769 18.9748 118.671 18.3011 118.475 17.6601C118.279 17.0323 117.991 16.4763 117.612 15.9923C117.219 15.5214 116.735 15.1486 116.16 14.8739C115.571 14.5992 114.897 14.4618 114.139 14.4618C113.655 14.4618 113.19 14.5469 112.745 14.7169C112.301 14.887 111.908 15.1355 111.568 15.4625C111.568 16.7183 111.503 17.961 111.372 19.1906C111.241 20.4333 111.176 21.6826 111.176 22.9383C111.176 23.2784 111.202 23.5989 111.254 23.8998C111.306 24.2007 111.405 24.4688 111.548 24.7043C111.692 24.9397 111.889 25.1229 112.137 25.2537C112.386 25.3976 112.706 25.4695 113.099 25.4695C113.282 25.4695 113.465 25.4564 113.648 25.4303C113.818 25.4172 113.982 25.378 114.139 25.3125L114.295 25.6657C114.021 25.8358 113.713 26.0255 113.373 26.2348C113.02 26.4571 112.667 26.6599 112.314 26.843C111.947 27.0392 111.581 27.2028 111.215 27.3336C110.836 27.4644 110.482 27.5298 110.155 27.5298C109.619 27.5298 109.2 27.4055 108.9 27.157C108.586 26.9084 108.357 26.5945 108.213 26.2151C108.056 25.8358 107.964 25.4172 107.938 24.9594C107.899 24.5146 107.879 24.0829 107.879 23.6643C107.879 23.128 107.905 22.5982 107.958 22.075C107.997 21.5518 108.049 21.0285 108.115 20.5053C108.167 19.982 108.219 19.4588 108.272 18.9355C108.324 18.4123 108.35 17.8825 108.35 17.3462C108.35 17.0846 108.337 16.8033 108.311 16.5025C108.285 16.2016 108.226 15.9204 108.134 15.6587C108.03 15.3971 107.879 15.1748 107.683 14.9916C107.487 14.8216 107.212 14.7365 106.859 14.7365C106.676 14.7365 106.493 14.7758 106.31 14.8543C106.113 14.9458 105.924 15.0439 105.74 15.1486L105.505 14.815C105.78 14.5796 106.087 14.3245 106.427 14.0498C106.754 13.7751 107.107 13.5135 107.487 13.2649C107.853 13.0295 108.232 12.8267 108.625 12.6567C109.004 12.4997 109.384 12.4212 109.763 12.4212C110.077 12.4212 110.345 12.4866 110.567 12.6174C110.777 12.7613 110.947 12.9379 111.078 13.1472C111.208 13.3696 111.313 13.6116 111.391 13.8732C111.457 14.1348 111.503 14.3964 111.529 14.6581C112.183 13.9124 112.948 13.3303 113.825 12.9117C114.688 12.4931 115.61 12.2838 116.591 12.2838C117.389 12.2838 118.115 12.4408 118.769 12.7548C119.423 13.0818 119.979 13.5069 120.437 14.0302C120.882 14.5665 121.228 15.1813 121.477 15.8746C121.725 16.581 121.85 17.3135 121.85 18.0722V23.2719C121.85 23.8867 121.994 24.4034 122.281 24.822C122.569 25.2537 123.06 25.4695 123.753 25.4695C123.936 25.4695 124.119 25.4564 124.302 25.4303C124.473 25.4172 124.649 25.378 124.832 25.3125L124.989 25.6657ZM134.211 28.4128C133.204 28.4128 132.262 28.21 131.386 27.8045C130.496 27.3859 129.725 26.8299 129.07 26.1367C128.416 25.4434 127.9 24.6454 127.52 23.7428C127.141 22.8402 126.951 21.8919 126.951 20.8977C126.951 19.5111 127.239 18.3142 127.815 17.307C128.377 16.2997 129.214 15.4037 130.326 14.6188C130.679 14.3703 131.052 14.1152 131.445 13.8536C131.824 13.605 132.216 13.3761 132.622 13.1668C133.028 12.9706 133.446 12.8071 133.878 12.6763C134.309 12.5585 134.754 12.4997 135.212 12.4997C135.657 12.4997 136.088 12.5585 136.507 12.6763C136.926 12.794 137.318 12.9641 137.684 13.1864C138.051 13.4088 138.378 13.6835 138.665 14.0105C138.94 14.3376 139.169 14.7038 139.352 15.1093L136.586 17.307C136.429 16.8884 136.226 16.4763 135.977 16.0708C135.729 15.6784 135.441 15.3252 135.114 15.0112C134.774 14.6973 134.401 14.4422 133.995 14.246C133.577 14.0629 133.126 13.9713 132.642 13.9713C132.04 13.9713 131.549 14.1414 131.17 14.4815C130.791 14.8216 130.496 15.2402 130.287 15.7372C130.065 16.2474 129.914 16.7903 129.836 17.3658C129.757 17.9414 129.718 18.4581 129.718 18.9159C129.718 19.7793 129.882 20.6295 130.209 21.4667C130.522 22.317 130.961 23.0692 131.523 23.7232C132.086 24.3903 132.753 24.9267 133.525 25.3322C134.296 25.7508 135.14 25.9601 136.056 25.9601C136.762 25.9601 137.442 25.8031 138.096 25.4891C138.75 25.1752 139.359 24.8351 139.921 24.4688L140.117 24.7828L134.211 28.4128ZM150.831 28.4128C149.85 28.4128 148.875 28.1969 147.907 27.7652C146.939 27.3205 146.076 26.7318 145.317 25.9993C144.545 25.2798 143.924 24.4492 143.453 23.5074C142.969 22.5786 142.727 21.6106 142.727 20.6034C142.727 19.897 142.806 19.2168 142.963 18.5627C143.106 17.9218 143.388 17.307 143.806 16.7183C144.264 16.0773 144.833 15.5149 145.513 15.0309C146.18 14.5599 146.841 14.1152 147.495 13.6966C148.018 13.3696 148.574 13.1341 149.163 12.9902C149.752 12.8463 150.347 12.7744 150.949 12.7744C151.459 12.7744 151.956 12.8398 152.44 12.9706C152.924 13.1145 153.355 13.3238 153.735 13.5985C154.114 13.8732 154.422 14.2133 154.657 14.6188C154.892 15.0374 155.01 15.5214 155.01 16.0708C155.01 16.4502 154.919 16.823 154.735 17.1892C154.539 17.5555 154.297 17.8956 154.009 18.2096C153.709 18.5235 153.388 18.8047 153.048 19.0533C152.708 19.3149 152.387 19.5242 152.087 19.6812C151.158 20.1782 150.183 20.5772 149.163 20.8781C148.143 21.192 147.122 21.4536 146.102 21.6629C146.194 21.8984 146.285 22.1077 146.377 22.2908C146.468 22.474 146.573 22.644 146.691 22.801C146.795 22.958 146.913 23.1084 147.044 23.2523C147.175 23.4093 147.338 23.5859 147.534 23.7821C147.77 24.0175 148.103 24.2595 148.535 24.5081C148.967 24.7697 149.431 25.0051 149.928 25.2144C150.412 25.4368 150.896 25.6134 151.38 25.7442C151.851 25.8881 152.244 25.9601 152.557 25.9601C152.924 25.9601 153.283 25.9077 153.637 25.8031C153.99 25.6984 154.337 25.5676 154.677 25.4107C155.004 25.2537 155.324 25.0771 155.638 24.8809C155.952 24.6847 156.253 24.495 156.541 24.3118L156.737 24.7828L150.831 28.4128ZM152.165 19.0925C152.139 18.4646 152.047 17.8564 151.89 17.2677C151.72 16.6791 151.433 16.1297 151.027 15.6195C150.713 15.214 150.294 14.8739 149.771 14.5992C149.235 14.3245 148.705 14.1871 148.182 14.1871C147.606 14.1871 147.148 14.3441 146.808 14.6581C146.455 14.9851 146.187 15.3775 146.004 15.8353C145.808 16.3063 145.683 16.8099 145.631 17.3462C145.566 17.8825 145.533 18.3665 145.533 18.7982C145.533 19.2953 145.559 19.7204 145.611 20.0736C145.664 20.4268 145.782 20.8323 145.965 21.2901L146.651 20.1717C147.58 20.0932 148.509 19.9755 149.438 19.8185L152.165 19.0925Z" fill="#DF0A0A"/>
<path d="M41.7724 39.5385C41.6517 40.0215 41.4907 40.4592 41.2894 40.8516C41.0882 41.244 40.8416 41.5786 40.5498 41.8553C40.2631 42.132 39.926 42.3459 39.5386 42.4968C39.1562 42.6477 38.716 42.7232 38.2179 42.7232C37.5286 42.7232 36.945 42.5823 36.467 42.3006C35.9891 42.0138 35.5966 41.6339 35.2897 41.161C34.9879 40.6831 34.769 40.1397 34.6332 39.5309C34.5024 38.9171 34.437 38.2807 34.437 37.6216C34.437 36.9625 34.5024 36.3261 34.6332 35.7122C34.769 35.0984 34.9854 34.5576 35.2822 34.0897C35.5841 33.6218 35.9664 33.247 36.4293 32.9652C36.8922 32.6784 37.4582 32.5351 38.1273 32.5351C38.3437 32.5351 38.5625 32.5627 38.7839 32.6181C39.0053 32.6734 39.2115 32.7589 39.4027 32.8747C39.5939 32.9854 39.7599 33.1237 39.9008 33.2897C40.0467 33.4558 40.1499 33.647 40.2102 33.8633V32.7011H41.6215V36.4292H40.2102C40.2102 36.1223 40.1725 35.8204 40.097 35.5236C40.0216 35.2217 39.9008 34.9551 39.7348 34.7236C39.5688 34.4922 39.36 34.3035 39.1084 34.1576C38.8568 34.0117 38.56 33.9388 38.2179 33.9388C37.7751 33.9388 37.4129 34.0469 37.1312 34.2633C36.8494 34.4796 36.623 34.7639 36.4519 35.1161C36.2809 35.4682 36.1601 35.8632 36.0897 36.3009C36.0243 36.7386 35.9916 37.1788 35.9916 37.6216C35.9916 38.0643 36.0243 38.5071 36.0897 38.9498C36.1601 39.3926 36.2784 39.79 36.4444 40.1422C36.6104 40.4894 36.8368 40.7711 37.1236 40.9874C37.4104 41.2038 37.7751 41.312 38.2179 41.312C38.8568 41.312 39.3474 41.1082 39.6895 40.7007C40.0367 40.2931 40.3134 39.7447 40.5197 39.0555L41.7724 39.5385ZM48.9418 42.5496H44.2176V41.1459H45.7571V34.1123H44.2176V32.7011H47.3193V41.1459H48.9418V42.5496ZM58.6772 39.0404C58.6772 39.5888 58.5891 40.0869 58.413 40.5346C58.242 40.9824 57.9929 41.3698 57.6659 41.6968C57.3439 42.0188 56.9565 42.2704 56.5037 42.4515C56.0509 42.6326 55.5453 42.7232 54.9868 42.7232C54.4384 42.7232 53.9378 42.6326 53.485 42.4515C53.0322 42.2704 52.6423 42.0188 52.3152 41.6968C51.9933 41.3698 51.7442 40.9824 51.5681 40.5346C51.3971 40.0869 51.3115 39.5888 51.3115 39.0404C51.3115 38.5071 51.3971 38.014 51.5681 37.5612C51.7442 37.1034 51.9933 36.7109 52.3152 36.3839C52.6423 36.0519 53.0322 35.7978 53.485 35.6217C53.9378 35.4406 54.4384 35.35 54.9868 35.35C55.5453 35.35 56.0509 35.4406 56.5037 35.6217C56.9565 35.7978 57.3439 36.0519 57.6659 36.3839C57.9929 36.7109 58.242 37.1034 58.413 37.5612C58.5891 38.014 58.6772 38.5071 58.6772 39.0404ZM57.1225 39.0404C57.1225 38.7234 57.0722 38.4241 56.9716 38.1423C56.876 37.8555 56.7351 37.6115 56.549 37.4103C56.3628 37.209 56.1364 37.0505 55.8698 36.9348C55.6082 36.8141 55.3138 36.7537 54.9868 36.7537C54.6547 36.7537 54.3579 36.8141 54.0963 36.9348C53.8347 37.0505 53.6133 37.209 53.4322 37.4103C53.251 37.6115 53.1102 37.8555 53.0096 38.1423C52.914 38.4241 52.8662 38.7234 52.8662 39.0404C52.8662 39.3724 52.914 39.6743 53.0096 39.946C53.1102 40.2177 53.251 40.4567 53.4322 40.6629C53.6133 40.8692 53.8347 41.0302 54.0963 41.1459C54.3579 41.2566 54.6547 41.312 54.9868 41.312C55.3138 41.312 55.6082 41.2566 55.8698 41.1459C56.1364 41.0302 56.3628 40.8692 56.549 40.6629C56.7351 40.4567 56.876 40.2177 56.9716 39.946C57.0722 39.6743 57.1225 39.3724 57.1225 39.0404ZM60.2695 35.516H61.8317V39.863C61.8317 40.4063 61.9349 40.7837 62.1411 40.995C62.3474 41.2063 62.6468 41.312 63.0392 41.312C63.6128 41.312 64.0832 41.078 64.4505 40.6101C64.8177 40.1422 65.0014 39.4957 65.0014 38.6706V35.516H66.5635V42.5496H65.0014V40.7912C64.8454 41.395 64.5561 41.8679 64.1335 42.21C63.7109 42.5521 63.1901 42.7232 62.5713 42.7232C61.8518 42.7232 61.2884 42.4892 60.8808 42.0213C60.4733 41.5484 60.2695 40.829 60.2695 39.863V35.516ZM75.0008 42.5496H73.4387V41.9006C73.1368 42.1673 72.8324 42.371 72.5255 42.5119C72.2186 42.6528 71.8689 42.7232 71.4765 42.7232C71.0237 42.7232 70.6036 42.6326 70.2162 42.4515C69.8288 42.2704 69.4942 42.0188 69.2125 41.6968C68.9357 41.3698 68.7169 40.9799 68.5559 40.5271C68.3999 40.0743 68.3219 39.5787 68.3219 39.0404C68.3219 38.5071 68.3999 38.014 68.5559 37.5612C68.7169 37.1034 68.9357 36.7135 69.2125 36.3915C69.4942 36.0644 69.8288 35.8104 70.2162 35.6292C70.6036 35.4431 71.0237 35.35 71.4765 35.35C71.8689 35.35 72.2186 35.4179 72.5255 35.5538C72.8324 35.6846 73.1368 35.8833 73.4387 36.15V34.1123H72.0802V32.7011H75.0008V42.5496ZM73.4387 37.3876C73.2525 37.1814 73.011 37.0254 72.7142 36.9197C72.4224 36.809 72.1431 36.7537 71.8765 36.7537C71.2878 36.7537 70.8073 36.965 70.435 37.3876C70.0678 37.8103 69.8841 38.3612 69.8841 39.0404C69.8841 39.7196 70.0678 40.268 70.435 40.6856C70.8073 41.1032 71.2878 41.312 71.8765 41.312C72.1431 41.312 72.4224 41.2591 72.7142 41.1535C73.011 41.0428 73.2525 40.8843 73.4387 40.678V37.3876ZM99.5052 42.5496L98.7958 40.2026H95.5356L94.8413 42.5496H93.2036L96.2752 32.7011H98.0713L101.143 42.5496H99.5052ZM95.9507 38.8215H98.3807L97.1732 34.7614L95.9507 38.8215ZM108.856 41.5459C108.403 41.9987 107.925 42.3081 107.422 42.4742C106.924 42.6402 106.383 42.7232 105.799 42.7232C105.211 42.7232 104.675 42.6352 104.192 42.4591C103.714 42.283 103.306 42.0364 102.969 41.7195C102.637 41.3975 102.381 41.0101 102.199 40.5573C102.023 40.1045 101.935 39.5988 101.935 39.0404C101.935 38.5071 102.023 38.014 102.199 37.5612C102.381 37.1034 102.622 36.7135 102.924 36.3915C103.231 36.0644 103.591 35.8104 104.003 35.6292C104.416 35.4431 104.853 35.35 105.316 35.35C105.799 35.35 106.219 35.4506 106.577 35.6519C106.934 35.8531 107.193 36.1474 107.354 36.5348V35.516H108.75V38.7913H107.354C107.354 38.1725 107.183 37.6794 106.841 37.3122C106.504 36.9399 106.063 36.7537 105.52 36.7537C105.304 36.7537 105.075 36.799 104.833 36.8895C104.597 36.9751 104.378 37.1109 104.177 37.2971C103.98 37.4832 103.817 37.7197 103.686 38.0065C103.555 38.2932 103.49 38.6379 103.49 39.0404C103.49 39.4328 103.553 39.7724 103.679 40.0592C103.804 40.3409 103.968 40.5749 104.169 40.761C104.375 40.9422 104.617 41.0805 104.894 41.1761C105.175 41.2667 105.465 41.312 105.761 41.312C106.27 41.312 106.71 41.234 107.082 41.078C107.459 40.917 107.784 40.7057 108.056 40.4441L108.856 41.5459ZM110.493 40.5271C110.493 40.1145 110.604 39.7548 110.825 39.4479C111.047 39.136 111.336 38.8769 111.693 38.6706C112.055 38.4643 112.468 38.3109 112.931 38.2102C113.399 38.1046 113.874 38.0517 114.357 38.0517C114.624 38.0517 114.853 38.0568 115.044 38.0668C115.235 38.0769 115.429 38.092 115.625 38.1121V37.8329C115.625 37.4656 115.482 37.1914 115.195 37.0103C114.913 36.8292 114.541 36.7386 114.078 36.7386C113.655 36.7386 113.225 36.799 112.787 36.9197C112.35 37.0354 111.935 37.2065 111.542 37.4329L110.908 36.2103C111.371 35.9437 111.867 35.7349 112.395 35.584C112.928 35.428 113.489 35.35 114.078 35.35C114.46 35.35 114.835 35.3928 115.202 35.4783C115.575 35.5638 115.907 35.7047 116.199 35.9009C116.495 36.0971 116.732 36.3537 116.908 36.6707C117.084 36.9826 117.172 37.37 117.172 37.8329V42.5496H115.625V41.5157C115.379 41.8981 115.014 42.1949 114.531 42.4062C114.053 42.6175 113.537 42.7232 112.984 42.7232C112.642 42.7232 112.317 42.6754 112.01 42.5798C111.708 42.4892 111.447 42.3509 111.225 42.1647C111.004 41.9786 110.825 41.7497 110.689 41.478C110.559 41.2013 110.493 40.8843 110.493 40.5271ZM113.384 41.327C113.691 41.327 113.977 41.2893 114.244 41.2138C114.516 41.1333 114.755 41.0252 114.961 40.8893C115.167 40.7485 115.328 40.5799 115.444 40.3837C115.565 40.1875 115.625 39.9711 115.625 39.7347V39.4705C115.379 39.4303 115.147 39.4077 114.931 39.4026C114.714 39.3976 114.523 39.3951 114.357 39.3951C113.592 39.3951 113.014 39.4957 112.621 39.6969C112.234 39.8982 112.04 40.1472 112.04 40.4441C112.04 41.0327 112.488 41.327 113.384 41.327ZM125.625 42.5496H124.062V41.9006C123.76 42.1673 123.456 42.371 123.149 42.5119C122.842 42.6528 122.493 42.7232 122.1 42.7232C121.647 42.7232 121.227 42.6326 120.84 42.4515C120.452 42.2704 120.118 42.0188 119.836 41.6968C119.559 41.3698 119.341 40.9799 119.18 40.5271C119.024 40.0743 118.946 39.5787 118.946 39.0404C118.946 38.5071 119.024 38.014 119.18 37.5612C119.341 37.1034 119.559 36.7135 119.836 36.3915C120.118 36.0644 120.452 35.8104 120.84 35.6292C121.227 35.4431 121.647 35.35 122.1 35.35C122.493 35.35 122.842 35.4179 123.149 35.5538C123.456 35.6846 123.76 35.8833 124.062 36.15V34.1123H122.704V32.7011H125.625V42.5496ZM124.062 37.3876C123.876 37.1814 123.635 37.0254 123.338 36.9197C123.046 36.809 122.767 36.7537 122.5 36.7537C121.912 36.7537 121.431 36.965 121.059 37.3876C120.691 37.8103 120.508 38.3612 120.508 39.0404C120.508 39.7196 120.691 40.268 121.059 40.6856C121.431 41.1032 121.912 41.312 122.5 41.312C122.767 41.312 123.046 41.2591 123.338 41.1535C123.635 41.0428 123.876 40.8843 124.062 40.678V37.3876ZM128.832 39.629C128.907 40.112 129.136 40.5145 129.519 40.8365C129.906 41.1535 130.424 41.312 131.073 41.312C131.581 41.312 132.022 41.234 132.394 41.078C132.771 40.917 133.096 40.7057 133.368 40.4441L134.167 41.5459C133.715 41.9987 133.234 42.3081 132.726 42.4742C132.223 42.6402 131.672 42.7232 131.073 42.7232C130.53 42.7232 130.024 42.6326 129.556 42.4515C129.089 42.2704 128.684 42.0188 128.341 41.6968C127.999 41.3698 127.73 40.9824 127.534 40.5346C127.343 40.0869 127.247 39.5888 127.247 39.0404C127.247 38.5071 127.335 38.0165 127.511 37.5688C127.692 37.1159 127.944 36.726 128.266 36.399C128.593 36.0669 128.983 35.8104 129.436 35.6292C129.888 35.4431 130.389 35.35 130.937 35.35C131.506 35.35 132.022 35.4481 132.485 35.6443C132.947 35.8355 133.342 36.1147 133.669 36.482C134.001 36.8493 134.261 37.2996 134.447 37.8329C134.633 38.3612 134.726 38.9599 134.726 39.629H128.832ZM132.96 38.2555C132.88 37.8027 132.646 37.4405 132.258 37.1688C131.871 36.8921 131.431 36.7537 130.937 36.7537C130.444 36.7537 130.002 36.8921 129.609 37.1688C129.217 37.4405 128.98 37.8027 128.9 38.2555H132.96ZM142.869 42.5496H141.307V37.7272C141.307 37.3952 141.272 37.1512 141.201 36.9952C141.136 36.8342 141.017 36.7537 140.846 36.7537C140.534 36.7537 140.336 36.9298 140.25 37.282C140.17 37.6291 140.129 38.1373 140.129 38.8064V42.5496H138.567V37.7272C138.567 37.3952 138.532 37.1512 138.462 36.9952C138.391 36.8342 138.268 36.7537 138.092 36.7537C137.785 36.7537 137.591 36.9298 137.511 37.282C137.435 37.6291 137.398 38.1373 137.398 38.8064V42.5496H135.835V35.516H137.413V36.5348C137.523 36.1474 137.687 35.8531 137.903 35.6519C138.119 35.4506 138.409 35.35 138.771 35.35C139.073 35.35 139.324 35.4431 139.526 35.6292C139.732 35.8104 139.873 36.0619 139.948 36.3839C140.124 36.0317 140.306 35.7726 140.492 35.6066C140.683 35.4355 140.975 35.35 141.367 35.35C141.85 35.35 142.22 35.5286 142.476 35.8858C142.738 36.238 142.869 36.7738 142.869 37.4933V42.5496ZM151.246 35.516L148.212 43.9231C147.986 44.5319 147.656 44.9495 147.223 45.1759C146.791 45.4023 146.275 45.5155 145.676 45.5155C145.47 45.5155 145.249 45.4954 145.012 45.4551C144.776 45.4149 144.529 45.347 144.273 45.2514L144.597 43.8175C144.813 43.898 145.012 43.9533 145.193 43.9835C145.374 44.0187 145.535 44.0363 145.676 44.0363C146.144 44.0363 146.464 43.8301 146.635 43.4175L146.914 42.7383L144.227 35.516H145.85L147.782 40.8365L149.57 35.516H151.246Z" fill="#081E53"/>
</svg>
