<svg width="46" height="31" viewBox="0 0 46 31" fill="none" xmlns="http://www.w3.org/2000/svg">
<path d="M26.0078 21.0845C26.0078 14.9051 29.2331 4.2486 37.9538 0.088049C38.7726 -0.302551 39.285 0.698047 38.6031 1.2935C32.6488 6.4925 30.6396 11.8787 36.0078 11.169C41.5307 11.169 46.0078 15.6083 46.0078 21.0845C46.0078 26.5607 41.5307 31 36.0078 31C30.485 31 26.0078 26.5607 26.0078 21.0845Z" fill="#DF0A0A"/>
<path d="M-7.15256e-07 21.0845C-7.15256e-07 14.9051 3.2253 4.2486 11.9459 0.0880507C12.7647 -0.302549 13.2771 0.698049 12.5952 1.2935C6.64095 6.4925 4.63175 11.8787 10 11.169C15.5228 11.169 20 15.6083 20 21.0845C20 26.5607 15.5228 31 10 31C4.47715 31 -7.15256e-07 26.5607 -7.15256e-07 21.0845Z" fill="#DF0A0A"/>
</svg>
