<svg width="11" height="11" viewBox="0 0 11 11" fill="none" xmlns="http://www.w3.org/2000/svg">
<path d="M0.678125 0.640186H10.2125C10.3608 0.640186 10.4862 0.691389 10.5886 0.793796C10.691 0.896201 10.7422 1.02156 10.7422 1.16987V9.64487C10.7422 9.79319 10.691 9.91854 10.5886 10.021C10.4862 10.1234 10.3608 10.1746 10.2125 10.1746H0.678125C0.529812 10.1746 0.404453 10.1234 0.302047 10.021C0.199641 9.91854 0.148438 9.79319 0.148438 9.64487V1.16987C0.148438 1.02156 0.199641 0.896201 0.302047 0.793796C0.404453 0.691389 0.529812 0.640186 0.678125 0.640186ZM9.68281 2.88606L5.48769 6.64684L1.20781 2.87547V9.11519H9.68281V2.88606ZM1.48325 1.69956L5.47709 5.22728L9.41797 1.69956H1.48325Z" fill="#454545" fill-opacity="0.74"/>
</svg>
