<svg width="9" height="12" viewBox="0 0 9 12" fill="none" xmlns="http://www.w3.org/2000/svg">
<path d="M8.67813 11.3232H7.61875V10.2639C7.61875 9.9743 7.54813 9.7077 7.40688 9.46404C7.26563 9.22038 7.07317 9.02793 6.82952 8.88668C6.58586 8.74543 6.31925 8.6748 6.02969 8.6748H2.85156C2.562 8.6748 2.29539 8.74543 2.05173 8.88668C1.80808 9.02793 1.61563 9.22038 1.47438 9.46404C1.33313 9.7077 1.2625 9.9743 1.2625 10.2639V11.3232H0.203125V10.2639C0.203125 9.78362 0.321422 9.34045 0.558016 8.93435C0.794609 8.52826 1.11595 8.20691 1.52205 7.97032C1.92814 7.73373 2.37131 7.61543 2.85156 7.61543H6.02969C6.50994 7.61543 6.95311 7.73373 7.3592 7.97032C7.7653 8.20691 8.08664 8.52826 8.32323 8.93435C8.55983 9.34045 8.67813 9.78362 8.67813 10.2639V11.3232ZM4.44063 6.55605C3.86856 6.55605 3.33534 6.41127 2.84097 6.12171C2.36072 5.83921 1.97934 5.45784 1.69684 4.97759C1.40728 4.48321 1.2625 3.94999 1.2625 3.37793C1.2625 2.80587 1.40728 2.27265 1.69684 1.77827C1.97934 1.29802 2.36072 0.916648 2.84097 0.634148C3.33534 0.344585 3.86856 0.199804 4.44063 0.199804C5.01269 0.199804 5.54591 0.344585 6.04028 0.634148C6.52053 0.916648 6.90191 1.29802 7.18441 1.77827C7.47397 2.27265 7.61875 2.80587 7.61875 3.37793C7.61875 3.94999 7.47397 4.48321 7.18441 4.97759C6.90191 5.45784 6.52053 5.83921 6.04028 6.12171C5.54591 6.41127 5.01269 6.55605 4.44063 6.55605ZM4.44063 5.49668C4.822 5.49668 5.17513 5.40134 5.5 5.21065C5.82488 5.01996 6.08266 4.76218 6.27334 4.4373C6.46403 4.11243 6.55938 3.7593 6.55938 3.37793C6.55938 2.99655 6.46403 2.64343 6.27334 2.31855C6.08266 1.99368 5.82488 1.7359 5.5 1.54521C5.17513 1.35452 4.822 1.25918 4.44063 1.25918C4.05925 1.25918 3.70613 1.35452 3.38125 1.54521C3.05638 1.7359 2.79859 1.99368 2.60791 2.31855C2.41722 2.64343 2.32188 2.99655 2.32188 3.37793C2.32188 3.7593 2.41722 4.11243 2.60791 4.4373C2.79859 4.76218 3.05638 5.01996 3.38125 5.21065C3.70613 5.40134 4.05925 5.49668 4.44063 5.49668Z" fill="#454545" fill-opacity="0.74"/>
</svg>
