<svg width="40" height="40" viewBox="0 0 40 40" fill="none" xmlns="http://www.w3.org/2000/svg">
<path d="M20 0C8.9705 0 0 8.9705 0 20C0 31.0295 8.9705 40 20 40C31.0295 40 40 31.0295 40 20C40 8.9705 31.0295 0 20 0ZM20 4.6406C23.7344 4.6406 26.7695 7.67575 26.7695 11.4101C26.7695 15.1445 23.7343 18.1796 20 18.1796C16.2657 18.1796 13.2305 15.1445 13.2305 11.4101C13.2305 7.67575 16.2657 4.6406 20 4.6406ZM31.83 29.7696C28.9042 33.3145 24.5955 35.3436 20 35.3436C15.4045 35.3436 11.0955 33.3143 8.176 29.7696C7.4807 28.9297 7.3752 27.709 7.91037 26.7344C9.77562 23.3438 13.3364 21.2344 17.1994 21.2344H22.7949C24.7304 21.2344 26.5898 21.7598 28.1954 22.7149C29.8048 23.6641 31.1602 25.0391 32.0958 26.7344C32.6309 27.709 32.5253 28.9297 31.83 29.7696Z" fill="#DF0A0A"/>
</svg>
