<svg width="10" height="10" viewBox="0 0 10 10" fill="none" xmlns="http://www.w3.org/2000/svg">
<path d="M2.29072 9.5711C2.16326 9.5711 2.03701 9.53122 1.92887 9.45268C1.73766 9.31369 1.6435 9.0826 1.6838 8.84945L2.12913 6.25147C2.13982 6.18938 2.11926 6.12605 2.07403 6.08205L0.186598 4.24273C0.0171819 4.07784 -0.0424411 3.83523 0.0307508 3.61031C0.103944 3.38538 0.294738 3.2246 0.528714 3.19088L3.13691 2.81175C3.19941 2.80271 3.25287 2.76364 3.28083 2.70731L4.44697 0.343759C4.55182 0.131994 4.76359 0 5.00003 0C5.23647 0 5.44823 0.131994 5.55309 0.343759L6.71965 2.70731C6.7472 2.76364 6.80107 2.80271 6.86357 2.81175L9.47177 3.19088C9.70574 3.22501 9.89654 3.38579 9.96932 3.61031C10.0425 3.83523 9.98248 4.07743 9.81347 4.24232L7.92604 6.08238C7.88081 6.12638 7.86025 6.18929 7.87094 6.25138L8.31627 8.84936C8.35616 9.08251 8.2624 9.31361 8.07079 9.45259C7.87917 9.59158 7.6304 9.60967 7.42109 9.49947L5.08881 8.27332C5.0333 8.24372 4.96668 8.24372 4.91117 8.27332L2.57804 9.49947C2.48717 9.54717 2.38848 9.57102 2.29061 9.57102L2.29072 9.5711ZM5.00008 0.425645C4.97212 0.425645 4.87754 0.433457 4.82861 0.532143L3.66246 2.89569C3.57241 3.07786 3.3993 3.20368 3.19822 3.23287L0.589605 3.612C0.483517 3.62722 0.446505 3.70822 0.43541 3.74194C0.426775 3.76867 0.404982 3.86119 0.483932 3.93809L2.37136 5.77783C2.51651 5.9197 2.58272 6.12365 2.54859 6.32349L2.10326 8.92147C2.08476 9.03002 2.15671 9.09212 2.17933 9.10856C2.20811 9.12953 2.28624 9.17312 2.38082 9.12295L4.71353 7.89639C4.89322 7.80181 5.10787 7.80181 5.28756 7.89639L7.62027 9.12253C7.71484 9.17229 7.79256 9.12911 7.82176 9.10814C7.84437 9.09169 7.91633 9.0296 7.89783 8.92105L7.45209 6.32307C7.41796 6.12282 7.48416 5.91887 7.62932 5.77741L9.51675 3.93767C9.5957 3.86077 9.5739 3.76825 9.56527 3.74152C9.55417 3.7078 9.51716 3.6268 9.41107 3.61158L6.80288 3.23245C6.6018 3.20326 6.42828 3.07702 6.33864 2.89527L5.17165 0.532143C5.12272 0.433455 5.02804 0.425645 5.00008 0.425645Z" fill="#EF3948"/>
</svg>
