<svg width="11" height="10" viewBox="0 0 11 10" fill="none" xmlns="http://www.w3.org/2000/svg">
<path d="M4.04459 4.08905C4.29178 4.52692 4.5937 4.92419 4.95036 5.28084C5.30702 5.6375 5.70428 5.93942 6.14216 6.18661L6.60828 5.5298C6.68597 5.4168 6.79014 5.34617 6.9208 5.31792C7.05145 5.28967 7.17681 5.30733 7.29687 5.37089C8.05256 5.78758 8.86122 6.0277 9.72284 6.09126C9.85703 6.10539 9.9718 6.16189 10.0671 6.26076C10.1625 6.35964 10.2102 6.4797 10.2102 6.62095V8.98336C10.2102 9.11754 10.1642 9.23584 10.0724 9.33825C9.98062 9.44065 9.86762 9.49892 9.73344 9.51304C9.458 9.54129 9.1755 9.55542 8.88594 9.55542C7.77006 9.55542 6.70362 9.34001 5.68663 8.9092C4.70494 8.49251 3.83625 7.90633 3.08056 7.15064C2.32487 6.39495 1.73869 5.52626 1.322 4.54458C0.891187 3.52758 0.675781 2.46114 0.675781 1.34526C0.675781 1.0557 0.689906 0.773202 0.718156 0.497764C0.732281 0.363577 0.790547 0.250577 0.892953 0.158764C0.995359 0.0669518 1.11366 0.0210457 1.24784 0.0210457H3.61025C3.7515 0.0210457 3.87156 0.068717 3.97044 0.164061C4.06931 0.259405 4.12581 0.37417 4.13994 0.508358C4.2035 1.36998 4.44362 2.17864 4.86031 2.93433C4.92387 3.05439 4.94153 3.17975 4.91328 3.3104C4.88503 3.44106 4.81441 3.54523 4.70141 3.62292L4.04459 4.08905ZM2.70978 3.73945L3.71619 3.01908C3.43369 2.40464 3.23947 1.75842 3.13353 1.08042H1.74575L1.73516 1.34526C1.73516 2.31283 1.92231 3.24155 2.29662 4.13142C2.65681 4.98598 3.16708 5.74344 3.82742 6.40378C4.48777 7.06412 5.24522 7.57439 6.09978 7.93458C6.98966 8.30889 7.91837 8.49604 8.88594 8.49604H9.15078V7.09767C8.47278 6.99173 7.82656 6.79751 7.21212 6.51501L6.49175 7.52142C6.20219 7.40842 5.91969 7.27423 5.64425 7.11886L5.61247 7.10826C5.09691 6.81164 4.62725 6.45145 4.2035 6.0277C3.77975 5.60395 3.41956 5.13429 3.12294 4.61873L3.11234 4.58695C2.95697 4.31151 2.82278 4.02901 2.70978 3.73945Z" fill="#454545" fill-opacity="0.74"/>
</svg>
